<mxfile host="app.diagrams.net" modified="2024-05-29T19:14:21.142Z" agent="Mozilla/5.0 (Windows NT 10.0; Win64; x64) AppleWebKit/537.36 (KHTML, like Gecko) Chrome/125.0.0.0 Safari/537.36" etag="UaQfEgpyb0RL6dYnAjCw" version="24.4.10" type="github">
  <diagram name="Page-1" id="eGfk4zaRuDzilDirRoCr">
    <mxGraphModel dx="954" dy="558" grid="1" gridSize="10" guides="1" tooltips="1" connect="1" arrows="1" fold="1" page="1" pageScale="1" pageWidth="850" pageHeight="1100" math="0" shadow="0">
      <root>
        <mxCell id="0" />
        <mxCell id="1" parent="0" />
        <mxCell id="71xDWmtC34hKfCI5L5w2-1" value="" style="outlineConnect=0;dashed=0;verticalLabelPosition=bottom;verticalAlign=top;align=center;html=1;shape=mxgraph.aws3.ec2;fillColor=#F58534;gradientColor=none;" vertex="1" parent="1">
          <mxGeometry x="170" y="240" width="76.5" height="93" as="geometry" />
        </mxCell>
        <mxCell id="71xDWmtC34hKfCI5L5w2-3" style="edgeStyle=orthogonalEdgeStyle;rounded=0;orthogonalLoop=1;jettySize=auto;html=1;" edge="1" parent="1" source="71xDWmtC34hKfCI5L5w2-1">
          <mxGeometry relative="1" as="geometry">
            <mxPoint x="590" y="286.5" as="targetPoint" />
          </mxGeometry>
        </mxCell>
        <mxCell id="71xDWmtC34hKfCI5L5w2-4" style="edgeStyle=orthogonalEdgeStyle;rounded=0;orthogonalLoop=1;jettySize=auto;html=1;" edge="1" parent="1" source="71xDWmtC34hKfCI5L5w2-2">
          <mxGeometry relative="1" as="geometry">
            <mxPoint x="250" y="300" as="targetPoint" />
          </mxGeometry>
        </mxCell>
        <mxCell id="71xDWmtC34hKfCI5L5w2-2" value="Amazon S3" style="sketch=0;outlineConnect=0;fontColor=#232F3E;gradientColor=none;strokeColor=#ffffff;fillColor=#232F3E;dashed=0;verticalLabelPosition=middle;verticalAlign=bottom;align=center;html=1;whiteSpace=wrap;fontSize=10;fontStyle=1;spacing=3;shape=mxgraph.aws4.productIcon;prIcon=mxgraph.aws4.s3;" vertex="1" parent="1">
          <mxGeometry x="600" y="250" width="80" height="100" as="geometry" />
        </mxCell>
        <mxCell id="71xDWmtC34hKfCI5L5w2-5" value="GET" style="text;html=1;align=center;verticalAlign=middle;resizable=0;points=[];autosize=1;strokeColor=none;fillColor=none;fontSize=19;" vertex="1" parent="1">
          <mxGeometry x="385" y="315" width="60" height="40" as="geometry" />
        </mxCell>
        <mxCell id="71xDWmtC34hKfCI5L5w2-6" value="PUT" style="text;html=1;align=center;verticalAlign=middle;resizable=0;points=[];autosize=1;strokeColor=none;fillColor=none;fontSize=19;" vertex="1" parent="1">
          <mxGeometry x="385" y="235" width="60" height="40" as="geometry" />
        </mxCell>
      </root>
    </mxGraphModel>
  </diagram>
</mxfile>
